<svg width="100" height="100" viewBox="0 0 100 100" fill="none" xmlns="http://www.w3.org/2000/svg">
<rect width="100" height="100" fill="url(#paint0_linear_2407_3672)"/>
<path d="M25.9149 35C25.4096 35 25 35.4088 25 35.913V55.5435C25 67.3936 34.6259 77 46.5 77C50.8956 77 54.9831 75.6836 58.3882 73.4243C58.1012 72.9507 57.9362 72.3992 57.9362 71.8118V67.9948C57.9362 67.1996 58.5874 66.5635 59.4015 66.5635H60.852L63.2942 61.3442L63.3238 61.3008C63.9898 60.2743 65.1443 59.6526 66.3876 59.6526H67.6062C67.8646 58.3226 68 56.9488 68 55.5435V35.913C68 35.4088 67.5904 35 67.0851 35H25.9149Z" fill="white"/>
<path d="M52 29C52 28.4477 52.4477 28 53 28H60C60.5523 28 61 28.4477 61 29V37H52V29Z" fill="white"/>
<path d="M33 29C33 28.4477 33.4477 28 34 28H40C40.5523 28 41 28.4477 41 29V37H33V29Z" fill="white"/>
<path d="M41.3049 67L53.3677 52.7214H48.3602L54 45H45.5017L41 56.9217H45.3663L41.3049 67Z" fill="url(#paint1_linear_2407_3672)"/>
<path fill-rule="evenodd" clip-rule="evenodd" d="M82.3852 67.4341H81.8049L76.4257 62.0098L76.4115 61.9964C75.7462 61.3503 74.8261 60.9869 73.8777 61.0004H67.0829C65.8938 61.0004 64.7897 61.5791 64.1527 62.5348L64.1244 62.5751L61.7887 67.4341H60.4014C59.6229 67.4341 59 68.0263 59 68.7666V72.32C59 73.9082 60.3306 75.2138 61.9869 75.2811V75.0927C61.9869 73.0468 63.728 71.3778 65.8938 71.3778C68.0597 71.3778 69.8008 73.0334 69.8008 75.0927V75.2811H77.0485V75.0927C77.091 73.0468 78.8746 71.4182 81.0404 71.4586C83.1355 71.499 84.82 73.1007 84.8625 75.0927V75.2811H85.8109C86.4621 75.2811 87 74.7697 87 74.1505V71.7816C86.9858 69.3723 84.9191 67.4341 82.3852 67.4341ZM63.6572 67.4341L65.6249 63.3558C65.9505 62.8982 66.5025 62.6155 67.0829 62.6155H70.0415V67.4341H63.6572ZM71.7401 67.4341V62.6155H73.8635C74.3589 62.6155 74.8402 62.804 75.1941 63.1405L79.4692 67.4341H71.7401Z" fill="white"/>
<path d="M65.8938 72.1854C64.2093 72.1854 62.8362 73.491 62.8362 75.0927C62.8362 76.6944 64.2093 78 65.8938 78C67.5784 78 68.9515 76.6944 68.9515 75.0927C68.9373 73.4775 67.5784 72.1854 65.8938 72.1854Z" fill="white"/>
<path d="M77.8837 75.0927C77.8837 73.491 79.2568 72.1854 80.9414 72.1854C82.6259 72.1854 83.999 73.4775 83.999 75.0927C83.999 76.6944 82.6259 78 80.9414 78C79.2568 78 77.8837 76.6944 77.8837 75.0927Z" fill="white"/>
<defs>
<linearGradient id="paint0_linear_2407_3672" x1="27.5229" y1="-175" x2="149.397" y2="-130.514" gradientUnits="userSpaceOnUse">
<stop stop-color="#A0FFED"/>
<stop offset="1" stop-color="#498DFF"/>
</linearGradient>
<linearGradient id="paint1_linear_2407_3672" x1="44.578" y1="6.5" x2="61.7344" y2="10.2005" gradientUnits="userSpaceOnUse">
<stop stop-color="#A0FFED"/>
<stop offset="1" stop-color="#498DFF"/>
</linearGradient>
</defs>
</svg>
